<svg xmlns="http://www.w3.org/2000/svg" width="19.294" height="20" viewBox="0 0 19.294 20">
  <path id="cog" d="M18.45,11.918a3.816,3.816,0,0,1,1.409-5.2l-1.966-3.4a3.764,3.764,0,0,1-1.911.518A3.815,3.815,0,0,1,12.179,0H8.249a3.765,3.765,0,0,1-.507,1.919A3.815,3.815,0,0,1,2.53,3.3L.565,6.7a3.764,3.764,0,0,1,1.4,1.4,3.815,3.815,0,0,1-1.4,5.2l1.966,3.4a3.764,3.764,0,0,1,1.9-.512A3.815,3.815,0,0,1,8.239,20h3.931a3.77,3.77,0,0,1,.507-1.9,3.815,3.815,0,0,1,5.2-1.387l1.966-3.4a3.77,3.77,0,0,1-1.395-1.391Zm-8.238,2.131A4.049,4.049,0,1,1,14.261,10,4.05,4.05,0,0,1,10.212,14.049Z" transform="translate(-0.565 0.001)" />
</svg>

