<svg xmlns="http://www.w3.org/2000/svg" width="28.284" height="20" viewBox="0 0 28.284 20">
  <path id="connection" d="M14.343,13.429A8.545,8.545,0,0,1,20.4,15.942l-2.019,2.019a5.7,5.7,0,0,0-8.077,0L8.285,15.942A8.545,8.545,0,0,1,14.343,13.429ZM4.241,11.9a14.285,14.285,0,0,1,20.2,0l-2.02,2.02a11.429,11.429,0,0,0-16.163,0ZM22.128,3.572a19.921,19.921,0,0,1,6.356,4.286h0l-2.02,2.02a17.144,17.144,0,0,0-24.244,0L.2,7.858A20.018,20.018,0,0,1,22.126,3.572Zm-9.213,17A1.429,1.429,0,1,1,14.343,22,1.428,1.428,0,0,1,12.914,20.571Z" transform="translate(-0.2 -2)" />
</svg>

