<!-- Generated by IcoMoon.io -->
<svg id="document-text" xmlns="http://www.w3.org/2000/svg" width="17.778" height="20" viewBox="0 0 17.778 20">
  <path id="Path_7" data-name="Path 7" d="M18.444,23H7.333A3.337,3.337,0,0,1,4,19.667V6.333A3.337,3.337,0,0,1,7.333,3H18.444a3.337,3.337,0,0,1,3.333,3.333V19.667A3.337,3.337,0,0,1,18.444,23ZM7.333,5.222A1.113,1.113,0,0,0,6.222,6.333V19.667a1.113,1.113,0,0,0,1.111,1.111H18.444a1.113,1.113,0,0,0,1.111-1.111V6.333a1.113,1.113,0,0,0-1.111-1.111Z" transform="translate(-4 -3)" />
  <path id="Path_8" data-name="Path 8" d="M16.12,11.236H8.007a.63.63,0,0,1,0-1.236H16.12a.63.63,0,0,1,0,1.236Z" transform="translate(-3.175 -2.274)" />
  <path id="Path_9" data-name="Path 9" d="M16.12,8.236H8.007A.571.571,0,0,1,7.5,7.618.571.571,0,0,1,8.007,7H16.12a.571.571,0,0,1,.507.618A.571.571,0,0,1,16.12,8.236Z" transform="translate(-3.175 -2.585)" />
  <path id="Path_10" data-name="Path 10" d="M16.12,14.236H8.007a.63.63,0,0,1,0-1.236H16.12a.63.63,0,0,1,0,1.236Z" transform="translate(-3.175 -1.962)" />
  <path id="Path_11" data-name="Path 11" d="M16.12,17.236H8.007a.63.63,0,0,1,0-1.236H16.12a.63.63,0,0,1,0,1.236Z" transform="translate(-3.175 -1.651)" />
</svg>

