<svg xmlns="http://www.w3.org/2000/svg" width="23" height="19" viewBox="0 0 23 19">
  <g id="Groups"  transform="translate(-15 -358)">
    <circle  cx="2.5" cy="2.5" r="2.5" transform="translate(24 358)" />
    <path d="M0,13.75A.75.75,0,0,1-.75,13V0A.75.75,0,0,1,0-.75.75.75,0,0,1,.75,0V13A.75.75,0,0,1,0,13.75Z" transform="translate(26.5 361.5)" />
    <path d="M18,.75H0A.75.75,0,0,1-.75,0,.75.75,0,0,1,0-.75H18a.75.75,0,0,1,.75.75A.75.75,0,0,1,18,.75Z" transform="translate(17.5 367.5)"/>
    <path d="M0,8.75A.75.75,0,0,1-.75,8V0A.75.75,0,0,1,0-.75.75.75,0,0,1,.75,0V8A.75.75,0,0,1,0,8.75Z" transform="translate(17.5 367.5)" />
    <path d="M0,8.75A.75.75,0,0,1-.75,8V0A.75.75,0,0,1,0-.75.75.75,0,0,1,.75,0V8A.75.75,0,0,1,0,8.75Z" transform="translate(35.5 367.5)" />
    <circle cx="2.5" cy="2.5" r="2.5" transform="translate(15 372)" />
    <circle cx="2.5" cy="2.5" r="2.5" transform="translate(24 372)" />
    <circle cx="2.5" cy="2.5" r="2.5" transform="translate(33 372)" />
  </g>
</svg>





