<svg xmlns="http://www.w3.org/2000/svg" width="39.998" height="20" viewBox="0 0 39.998 20">
  <path id="groups" d="M20,17.249a16.407,16.407,0,0,1,3.828.43,18.511,18.511,0,0,1,3.2,1.055,4.821,4.821,0,0,1,2.188,1.875A4.927,4.927,0,0,1,30,23.265V26H10V23.344a5.059,5.059,0,0,1,.782-2.735,4.821,4.821,0,0,1,2.188-1.875,18.51,18.51,0,0,1,3.2-1.055A16.407,16.407,0,0,1,20,17.249Zm-13.359.39a3.242,3.242,0,0,0,2.383-.977,3.152,3.152,0,0,0,.977-2.3A3.335,3.335,0,0,0,6.64,11a3.152,3.152,0,0,0-2.3.977,3.242,3.242,0,0,0-.977,2.383,3.152,3.152,0,0,0,.977,2.3,3.152,3.152,0,0,0,2.3.977Zm1.875,1.875a7.467,7.467,0,0,0-.86-.117q-.47-.038-1.015-.038a11.408,11.408,0,0,0-4.61.938,3.155,3.155,0,0,0-1.485,1.25A3.427,3.427,0,0,0,0,23.422V26H7.5V23.344a7.661,7.661,0,0,1,1.015-3.828Zm24.843-1.875a3.336,3.336,0,0,0,3.281-3.281,3.242,3.242,0,0,0-.977-2.383,3.152,3.152,0,0,0-2.3-.977A3.335,3.335,0,0,0,30,14.358a3.152,3.152,0,0,0,.977,2.3A3.242,3.242,0,0,0,33.358,17.639ZM40,23.42a3.427,3.427,0,0,0-.547-1.875,3.155,3.155,0,0,0-1.485-1.25,11.408,11.408,0,0,0-4.61-.938q-.547,0-1.015.038a7.534,7.534,0,0,0-.86.117A7.661,7.661,0,0,1,32.5,23.34V26H40V23.419ZM20,6a4.931,4.931,0,0,1,5,5,5,5,0,1,1-10,0,4.931,4.931,0,0,1,5-5Z" transform="translate(0.001 -6)" />
</svg>


