<svg xmlns="http://www.w3.org/2000/svg" width="35.555" height="20" viewBox="0 0 35.555 20">
  <path id="members" d="M-11903.451,31h-14.133V28.04a5.748,5.748,0,0,0-.773-2.876,4.97,4.97,0,0,0-1.547-1.669,19.39,19.39,0,0,1,2.633-.816,16.363,16.363,0,0,1,3.826-.429,16.351,16.351,0,0,1,3.826.429,18.738,18.738,0,0,1,3.2,1.053,4.923,4.923,0,0,1,2.189,1.874,5.018,5.018,0,0,1,.779,2.657V31ZM-11939,31V28.343a5.026,5.026,0,0,1,.785-2.731,4.825,4.825,0,0,1,2.186-1.878,18.508,18.508,0,0,1,3.2-1.053,16.339,16.339,0,0,1,3.828-.429,16.275,16.275,0,0,1,3.826.429,18.4,18.4,0,0,1,3.2,1.053,4.84,4.84,0,0,1,2.191,1.878,4.9,4.9,0,0,1,.783,2.652V31Zm10-8.749h0Zm13.016-1.92a4.868,4.868,0,0,1-1.793-1.794,4.95,4.95,0,0,1-.662-2.54,4.9,4.9,0,0,1,.662-2.536,4.977,4.977,0,0,1,1.793-1.794,4.952,4.952,0,0,1,2.541-.667,4.941,4.941,0,0,1,2.535.667,4.932,4.932,0,0,1,1.8,1.794,4.963,4.963,0,0,1,.66,2.536,5.017,5.017,0,0,1-.66,2.54,4.935,4.935,0,0,1-1.8,1.794,4.941,4.941,0,0,1-2.535.667A4.972,4.972,0,0,1-11915.986,20.331Zm-15.551,0a4.927,4.927,0,0,1-1.8-1.8A4.925,4.925,0,0,1-11934,16a4.942,4.942,0,0,1,.66-2.54,4.944,4.944,0,0,1,1.8-1.794A4.9,4.9,0,0,1-11929,11a4.929,4.929,0,0,1,2.539.667,4.988,4.988,0,0,1,1.795,1.794,4.925,4.925,0,0,1,.662,2.54,4.965,4.965,0,0,1-.662,2.536,4.956,4.956,0,0,1-1.795,1.8A4.987,4.987,0,0,1-11929,21,4.952,4.952,0,0,1-11931.537,20.335Z" transform="translate(11939.002 -10.999)" />
</svg>


