<svg xmlns="http://www.w3.org/2000/svg" width="17.002" height="12.001" viewBox="0 0 17.002 12.001">
  <path id="members" d="M12,12.75a9.845,9.845,0,0,1,2.3.258,11.107,11.107,0,0,1,1.922.633,2.893,2.893,0,0,1,1.313,1.125A2.956,2.956,0,0,1,18,16.36V18H6V16.407a3.035,3.035,0,0,1,.469-1.641,2.893,2.893,0,0,1,1.313-1.125A11.107,11.107,0,0,1,9.7,13.008,9.845,9.845,0,0,1,12,12.75Zm-7.016.234a1.946,1.946,0,0,0,1.43-.586A1.891,1.891,0,0,0,7,11.015,2,2,0,0,0,4.984,9,1.891,1.891,0,0,0,3.6,9.585a1.946,1.946,0,0,0-.586,1.43A1.891,1.891,0,0,0,3.6,12.4,1.891,1.891,0,0,0,4.984,12.984Zm1.125,1.125a4.48,4.48,0,0,0-.516-.07q-.282-.023-.609-.023a6.845,6.845,0,0,0-2.766.563,1.893,1.893,0,0,0-.891.75A2.057,2.057,0,0,0,1,16.454V18H5.5V16.407a4.6,4.6,0,0,1,.609-2.3ZM12,6a2.959,2.959,0,1,1-1.523.4A2.955,2.955,0,0,1,12,6Z" transform="translate(-0.999 -6)" />
</svg>



