<svg xmlns="http://www.w3.org/2000/svg" width="16.061" height="16.063" viewBox="0 0 16.061 16.063">
<title>profile</title>
  <path id="groups" d="M14.03,15.035a13.177,13.177,0,0,1,3.074.345,14.866,14.866,0,0,1,2.572.847,3.872,3.872,0,0,1,1.757,1.506,3.957,3.957,0,0,1,.628,2.133v2.2H6V19.929a4.063,4.063,0,0,1,.628-2.2,3.872,3.872,0,0,1,1.757-1.506,14.866,14.866,0,0,1,2.572-.847,13.177,13.177,0,0,1,3.074-.345ZM14.03,6a3.96,3.96,0,0,1,4.014,4.014,4.014,4.014,0,1,1-8.028,0A3.96,3.96,0,0,1,14.03,6Z" transform="translate(-6.001 -6)" />
</svg>

