<svg xmlns="http://www.w3.org/2000/svg" width="32.5" height="27" viewBox="0 0 32.5 27">
  <g id="th-menu" transform="translate(-24 -15)" >
    <path d="M27.5,2.5H0A2.5,2.5,0,0,1-2.5,0,2.5,2.5,0,0,1,0-2.5H27.5A2.5,2.5,0,0,1,30,0,2.5,2.5,0,0,1,27.5,2.5Z" transform="translate(26.5 17.5)"/>
    <path d="M27.5,2.5H0A2.5,2.5,0,0,1-2.5,0,2.5,2.5,0,0,1,0-2.5H27.5A2.5,2.5,0,0,1,30,0,2.5,2.5,0,0,1,27.5,2.5Z" transform="translate(26.5 28.5)"/>
    <path d="M15.5,2.5H0A2.5,2.5,0,0,1-2.5,0,2.5,2.5,0,0,1,0-2.5H15.5A2.5,2.5,0,0,1,18,0,2.5,2.5,0,0,1,15.5,2.5Z" transform="translate(38.5 39.5)"/>
  </g>
</svg>



