<svg xmlns="http://www.w3.org/2000/svg" width="100%" height="100%" viewBox="0 0 25 20">
<title>members</title>
  <path  d="M-11916.147,23.856h-9.085v-1.9a3.685,3.685,0,0,0-.5-1.849,3.188,3.188,0,0,0-.994-1.073,12.531,12.531,0,0,1,1.692-.524,10.525,10.525,0,0,1,2.46-.276,10.519,10.519,0,0,1,2.46.276,12.027,12.027,0,0,1,2.059.677,3.161,3.161,0,0,1,1.408,1.2,3.227,3.227,0,0,1,.5,1.708v1.759Zm-22.854,0V22.149a3.235,3.235,0,0,1,.5-1.756,3.108,3.108,0,0,1,1.405-1.208,11.9,11.9,0,0,1,2.059-.677,10.492,10.492,0,0,1,2.461-.276,10.458,10.458,0,0,1,2.459.276,11.831,11.831,0,0,1,2.058.677,3.108,3.108,0,0,1,1.409,1.208,3.154,3.154,0,0,1,.5,1.7v1.759Zm6.428-5.624h0Zm8.368-1.234a3.129,3.129,0,0,1-1.153-1.154,3.185,3.185,0,0,1-.426-1.633,3.156,3.156,0,0,1,.426-1.63,3.2,3.2,0,0,1,1.153-1.154,3.18,3.18,0,0,1,1.633-.428,3.174,3.174,0,0,1,1.63.428,3.169,3.169,0,0,1,1.157,1.154,3.191,3.191,0,0,1,.425,1.63,3.226,3.226,0,0,1-.425,1.633,3.167,3.167,0,0,1-1.157,1.154,3.174,3.174,0,0,1-1.63.428A3.2,3.2,0,0,1-11924.205,17Zm-10,0a3.171,3.171,0,0,1-1.157-1.157,3.162,3.162,0,0,1-.425-1.63,3.173,3.173,0,0,1,.425-1.633,3.185,3.185,0,0,1,1.157-1.154,3.152,3.152,0,0,1,1.63-.428,3.172,3.172,0,0,1,1.633.428,3.2,3.2,0,0,1,1.153,1.154,3.165,3.165,0,0,1,.426,1.633,3.192,3.192,0,0,1-.426,1.63A3.182,3.182,0,0,1-11930.94,17a3.207,3.207,0,0,1-1.633.425A3.186,3.186,0,0,1-11934.2,17Z" transform="translate(11939.001 -10.999)" />
</svg>

