<svg id="Layer_1" data-name="Layer 1" xmlns="http://www.w3.org/2000/svg" viewBox="0 0 1224 1224"><defs><style>.cls-1{fill:#991b1e;}</style></defs><path class="cls-1" d="M347.17,438.05c-91.41-19.16-180.36-16.43-262.38,4a46.34,46.34,0,0,0-35.05,45h0c0,30.25,28.45,52.21,57.81,44.92,67.29-16.71,140.12-19.23,214.92-4.24,188,37.7,335.94,185.62,373.63,373.64,15,74.8,12.47,147.63-4.23,214.92-7.29,29.36,14.67,57.81,44.92,57.81h0a46.35,46.35,0,0,0,45-35.05c20.44-82,23.18-170.95,4-262.36C739.75,656.83,567.06,484.13,347.17,438.05Z"/><path class="cls-1" d="M239.87,43.76A960.49,960.49,0,0,0,95.3,52.23a52.77,52.77,0,0,0-45.56,52.36h0c0,32.13,28.4,56.57,60.24,52.3a854.62,854.62,0,0,1,113.58-7.56c468.33-.05,851,382.55,851,850.88a854.45,854.45,0,0,1-7.55,113.68c-4.27,31.84,20.17,60.24,52.29,60.24h0a52.78,52.78,0,0,0,52.36-45.56,959,959,0,0,0,8.48-144.46C1171.58,470.29,753.7,52.35,239.87,43.76Z"/><circle class="cls-1" cx="223.66" cy="1000.21" r="173.92"/></svg>