<svg id="Layer_1" data-name="Layer 1" xmlns="http://www.w3.org/2000/svg" viewBox="0 0 1224 1224"><defs><style>.cls-1{fill:#991b1e;stroke:#231f20;stroke-miterlimit:10;}.cls-2{fill:#fff;}</style></defs><path class="cls-1" d="M154.89,224.61a237.2,237.2,0,0,0-106.36,1.63,18.79,18.79,0,0,0-14.2,18.25h0A18.82,18.82,0,0,0,57.76,262.7,198.24,198.24,0,0,1,144.88,261,193.62,193.62,0,0,1,296.33,412.43a198.39,198.39,0,0,1-1.72,87.12A18.82,18.82,0,0,0,312.82,523h0a18.78,18.78,0,0,0,18.24-14.21,237,237,0,0,0,1.64-106.34A230.25,230.25,0,0,0,154.89,224.61Z"/><path class="cls-1" d="M111.4,64.79a388.77,388.77,0,0,0-58.61,3.44A21.38,21.38,0,0,0,34.33,89.45h0a21.46,21.46,0,0,0,24.42,21.2,346,346,0,0,1,46-3.06c189.83,0,344.93,155.06,344.93,344.89a346.7,346.7,0,0,1-3.06,46.08A21.45,21.45,0,0,0,467.86,523h0a21.38,21.38,0,0,0,21.22-18.47A389.28,389.28,0,0,0,492.52,446C489.06,237.68,319.67,68.27,111.4,64.79Z"/><circle class="cls-1" cx="104.83" cy="452.48" r="70.5"/><path class="cls-2" d="M162,631.92v491.59c0,29.1-27.23,52.76-60.72,52.76s-60.72-23.66-60.72-52.76V631.92c0-29.1,27.23-52.76,60.72-52.76S162,602.82,162,631.92Z"/><path class="cls-2" d="M805.82,607.94c-27.69-18.57-64.85-28.78-104.64-28.78s-77,10.21-104.65,28.78c-25.88,17.33-40.15,39.91-40.15,63.56v472.67c0,17.39,25.13,32.1,54.88,32.1s54.88-14.71,54.88-32.1V897.09c0-15,13.83-27.19,32.16-28.37,1-.06,1.92-.08,2.88-.08,19.31,0,35,12.6,35,28.1v247.43c0,17.39,25.12,32.1,54.88,32.1s54.88-14.71,54.88-32.1V671.5C846,647.85,831.7,625.27,805.82,607.94ZM736.21,784.12c0,15.5-15.72,28.11-35,28.11q-1.44,0-2.88-.09C680,811,666.14,798.77,666.14,783.77V671.84c0-15,13.83-27.19,32.16-28.37,1-.06,1.92-.08,2.88-.08a40.76,40.76,0,0,1,22.51,6.51c8,5.32,12.52,13.19,12.52,21.6Z"/><path class="cls-2" d="M396,731.72V671.84c0-11.83-8.59-21.92-21.2-26.22a42.28,42.28,0,0,0-11-2.15c-.95-.06-1.91-.08-2.87-.08-19.31,0-35,12.6-35,28.11v412.09c0,15,13.83,27.19,32.16,28.37,1,.06,1.91.08,2.87.08,19.32,0,35-12.6,35-28.1v-60.23c0-17.39,25.13-32.11,54.88-32.11s54.89,14.72,54.89,32.11v60.23c0,23.64-14.27,46.22-40.15,63.55-27.7,18.57-64.85,28.78-104.65,28.78s-76.95-10.21-104.65-28.78c-25.87-17.33-40.14-39.91-40.14-63.55V671.5c0-16.26,6.75-32,19.34-45.89,0,0,0,0,0,0,.72-.79,1.47-1.58,2.24-2.37a105.9,105.9,0,0,1,12.07-10.65l.07-.07c.78-.58,1.57-1.17,2.36-1.74,1.31-1,2.67-1.89,4-2.82,27.7-18.57,64.86-28.78,104.65-28.78,2.31,0,4.6,0,6.89.11a214,214,0,0,1,45.21,6.08c19.6,4.85,37.46,12.48,52.55,22.59,25.88,17.33,40.15,39.91,40.15,63.56v60.22c0,17.39-25.13,32.11-54.89,32.11S396,749.11,396,731.72Z"/><path class="cls-2" d="M1146,607.94c-27.7-18.57-64.86-28.78-104.65-28.78s-76.95,10.21-104.65,28.78c-25.88,17.33-40.15,39.91-40.15,63.56v472.67c0,17.39,25.13,32.1,54.89,32.1s54.88-14.71,54.88-32.1V677c0-15,13.82-27.19,32.16-28.36,1-.07,1.91-.09,2.87-.09,19.31,0,35,12.61,35,28.11v467.47c0,17.39,25.13,32.1,54.88,32.1s54.88-14.71,54.88-32.1V671.5C1186.13,647.85,1171.86,625.27,1146,607.94Z"/></svg>