<svg id="Layer_1" data-name="Layer 1" xmlns="http://www.w3.org/2000/svg" viewBox="0 0 1224 1224"><defs><style>.cls-1{fill:#231f20;}</style></defs><path class="cls-1" d="M336.77,438.79c-91.58-19.19-180.7-16.45-262.87,4a46.44,46.44,0,0,0-35.12,45.1h0c0,30.31,28.5,52.31,57.92,45,67.41-16.74,140.39-19.26,215.33-4.24C500.4,566.45,648.6,714.65,686.37,903c15,74.94,12.49,147.91-4.24,215.33-7.31,29.41,14.69,57.92,45,57.92h0a46.44,46.44,0,0,0,45.1-35.12c20.48-82.16,23.22-171.27,4-262.85C730.1,658,557.08,485,336.77,438.79Z"/><path class="cls-1" d="M229.27,43.76A961.37,961.37,0,0,0,84.43,52.25a52.87,52.87,0,0,0-45.65,52.46h0c0,32.19,28.45,56.67,60.36,52.39a857.7,857.7,0,0,1,113.8-7.57c469.2-.05,852.58,383.28,852.57,852.49a857.49,857.49,0,0,1-7.56,113.89c-4.28,31.9,20.2,60.36,52.39,60.36h0a52.87,52.87,0,0,0,52.46-45.65,962.53,962.53,0,0,0,8.49-144.73C1162.75,471.09,744.07,52.36,229.27,43.76Z"/><circle class="cls-1" cx="213.03" cy="1002.02" r="174.25"/></svg>