<svg id="Layer_1" data-name="Layer 1" xmlns="http://www.w3.org/2000/svg" viewBox="0 0 1224 1224"><defs><style>.cls-1{fill:#991b1e;}</style></defs><path d="M159.44,630.44v492.92c0,29.18-27.31,52.91-60.89,52.91s-60.89-23.73-60.89-52.91V630.44c0-29.18,27.31-52.91,60.89-52.91S159.44,601.26,159.44,630.44Z"/><path d="M805,606.39c-27.78-18.62-65-28.86-104.94-28.86s-77.16,10.24-104.93,28.86c-25.95,17.37-40.26,40-40.26,63.73v474c0,17.44,25.2,32.19,55,32.19s55-14.75,55-32.19V896.33c0-15,13.87-27.27,32.25-28.45,1-.06,1.92-.08,2.88-.08,19.37,0,35.13,12.64,35.13,28.18v248.1c0,17.44,25.19,32.19,55,32.19s55-14.75,55-32.19v-474C845.29,646.41,831,623.76,805,606.39ZM735.23,783.05c0,15.55-15.76,28.18-35.13,28.18-1,0-1.92,0-2.88-.08C678.84,810,665,797.74,665,782.7V670.46c0-15,13.87-27.26,32.25-28.44,1-.06,1.92-.08,2.88-.08a40.9,40.9,0,0,1,22.58,6.53c8,5.33,12.55,13.22,12.55,21.65Z"/><path d="M394.14,730.51v-60c0-11.86-8.62-22-21.27-26.29a41.94,41.94,0,0,0-11-2.15c-1-.06-1.92-.08-2.88-.08-19.37,0-35.13,12.63-35.13,28.18v413.22c0,15,13.87,27.26,32.25,28.45,1,.06,1.92.08,2.88.08,19.37,0,35.13-12.64,35.13-28.19v-60.39c0-17.44,25.19-32.19,55-32.19s55,14.75,55,32.19v60.39c0,23.71-14.31,46.36-40.26,63.73-27.77,18.62-65,28.86-104.93,28.86s-77.16-10.24-104.94-28.86c-25.94-17.37-40.25-40-40.25-63.73V670.12c0-16.3,6.77-32.09,19.39-46,0,0,0,0,0,0,.73-.79,1.48-1.59,2.25-2.38A106.68,106.68,0,0,1,247.59,611l.07-.06c.77-.59,1.57-1.18,2.36-1.75,1.31-1,2.67-1.9,4-2.83,27.78-18.62,65-28.86,104.94-28.86,2.32,0,4.61,0,6.91.11a214.53,214.53,0,0,1,45.33,6.1c19.65,4.86,37.57,12.51,52.69,22.65,25.95,17.37,40.26,40,40.26,63.73v60.39c0,17.44-25.2,32.19-55,32.19S394.14,748,394.14,730.51Z"/><path d="M1146.13,606.39c-27.78-18.62-65-28.86-104.94-28.86S964,587.77,936.26,606.39c-26,17.37-40.26,40-40.26,63.73v474c0,17.44,25.2,32.19,55,32.19s55-14.75,55-32.19V675.68c0-15,13.86-27.26,32.24-28.44,1-.07,1.92-.09,2.88-.09,19.37,0,35.13,12.64,35.13,28.19v468.74c0,17.44,25.2,32.19,55,32.19s55-14.75,55-32.19v-474C1186.38,646.41,1172.07,623.76,1146.13,606.39Z"/><path class="cls-1" d="M158.55,227.6a237.71,237.71,0,0,0-106.64,1.64,18.84,18.84,0,0,0-14.25,18.29h0a18.87,18.87,0,0,0,23.5,18.26,198.87,198.87,0,0,1,87.36-1.72A194.13,194.13,0,0,1,300.38,415.93a198.87,198.87,0,0,1-1.72,87.36,18.87,18.87,0,0,0,18.26,23.49h0a18.83,18.83,0,0,0,18.29-14.24,237.7,237.7,0,0,0,1.64-106.64A230.87,230.87,0,0,0,158.55,227.6Z"/><path class="cls-1" d="M115,67.35a389.51,389.51,0,0,0-58.77,3.44A21.45,21.45,0,0,0,37.66,92.07h0a21.52,21.52,0,0,0,24.49,21.26,346.38,346.38,0,0,1,46.17-3.07c190.35,0,345.87,155.48,345.87,345.83a347,347,0,0,1-3.07,46.21,21.52,21.52,0,0,0,21.26,24.48h0a21.45,21.45,0,0,0,21.28-18.51,390.15,390.15,0,0,0,3.44-58.72C493.64,240.71,323.79,70.84,115,67.35Z"/><circle class="cls-1" cx="108.36" cy="456.09" r="70.69"/></svg>